<svg xmlns="http://www.w3.org/2000/svg" width="84.184" height="96.21" viewBox="0 0 84.184 96.21">
  <path id="Icon_awesome-calendar-check" data-name="Icon awesome-calendar-check" d="M81.929,30.066H2.255A2.255,2.255,0,0,1,0,27.811V21.046a9.02,9.02,0,0,1,9.02-9.02h9.02V2.255A2.255,2.255,0,0,1,20.294,0h7.516a2.255,2.255,0,0,1,2.255,2.255v9.771H54.118V2.255A2.255,2.255,0,0,1,56.373,0h7.516a2.255,2.255,0,0,1,2.255,2.255v9.771h9.02a9.02,9.02,0,0,1,9.02,9.02v6.765A2.255,2.255,0,0,1,81.929,30.066ZM2.255,36.079H81.929a2.255,2.255,0,0,1,2.255,2.255V87.19a9.02,9.02,0,0,1-9.02,9.02H9.02A9.02,9.02,0,0,1,0,87.19V38.334A2.255,2.255,0,0,1,2.255,36.079Zm62.63,18.029-5.293-5.336a2.255,2.255,0,0,0-3.189-.013L36.477,68.524l-8.64-8.71a2.255,2.255,0,0,0-3.189-.013l-5.336,5.293a2.255,2.255,0,0,0-.013,3.189L34.821,83.931a2.255,2.255,0,0,0,3.189.013L64.872,57.3a2.255,2.255,0,0,0,.013-3.189Z" fill="#707070"/>
</svg>
