<svg xmlns="http://www.w3.org/2000/svg" width="94.136" height="83.683" viewBox="0 0 94.136 83.683">
  <path id="Icon_awesome-file-export" data-name="Icon awesome-file-export" d="M62.763,19.924a3.91,3.91,0,0,0-1.144-2.762l-16-16.018A3.92,3.92,0,0,0,42.839,0h-1V20.921H62.763ZM93.327,50.341,77.685,34.585a2.622,2.622,0,0,0-4.478,1.847v10.64H62.746v10.46h10.46V68.189a2.622,2.622,0,0,0,4.478,1.847L93.327,54.263A2.782,2.782,0,0,0,93.327,50.341ZM31.381,54.917v-5.23A2.623,2.623,0,0,1,34,47.072H62.763V26.151H40.534a3.934,3.934,0,0,1-3.923-3.923V0H3.923A3.913,3.913,0,0,0,0,3.923V79.761a3.913,3.913,0,0,0,3.923,3.923H58.84a3.913,3.913,0,0,0,3.923-3.923V57.532H34A2.623,2.623,0,0,1,31.381,54.917Z" fill="#707070"/>
</svg>
