<svg xmlns="http://www.w3.org/2000/svg" width="53.995" height="48" viewBox="0 0 53.995 48">
  <path id="Icon_awesome-file-export" data-name="Icon awesome-file-export" d="M36,11.428a2.243,2.243,0,0,0-.656-1.584L26.166.656A2.248,2.248,0,0,0,24.572,0H24V12H36ZM53.531,28.875l-8.972-9.037A1.5,1.5,0,0,0,41.991,20.9V27h-6v6h6v6.113a1.5,1.5,0,0,0,2.569,1.059l8.972-9.047A1.6,1.6,0,0,0,53.531,28.875ZM18,31.5v-3A1.5,1.5,0,0,1,19.5,27H36V15H23.25A2.257,2.257,0,0,1,21,12.75V0H2.25A2.245,2.245,0,0,0,0,2.25v43.5A2.245,2.245,0,0,0,2.25,48h31.5A2.245,2.245,0,0,0,36,45.75V33H19.5A1.5,1.5,0,0,1,18,31.5Z" fill="#3c3c3c"/>
</svg>
