<svg xmlns="http://www.w3.org/2000/svg" width="48" height="48" viewBox="0 0 48 48">
  <defs>
    <style>
      .cls-1 {
        fill: #2b2b5e;
      }
    </style>
  </defs>
  <path id="Icon_awesome-file-import" data-name="Icon awesome-file-import" class="cls-1" d="M1.5,27A1.5,1.5,0,0,0,0,28.5v3A1.5,1.5,0,0,0,1.5,33H12V27ZM47.344,9.844,38.166.656A2.248,2.248,0,0,0,36.572,0H36V12H48v-.572A2.243,2.243,0,0,0,47.344,9.844ZM33,12.75V0H14.25A2.245,2.245,0,0,0,12,2.25V27H24V20.888a1.5,1.5,0,0,1,2.569-1.059l8.962,9.047a1.6,1.6,0,0,1,0,2.25l-8.972,9.038A1.5,1.5,0,0,1,23.991,39.1V33H12V45.75A2.245,2.245,0,0,0,14.25,48h31.5A2.245,2.245,0,0,0,48,45.75V15H35.25A2.257,2.257,0,0,1,33,12.75Z"/>
</svg>
